<svg width="33" height="41" viewBox="0 0 33 41" fill="none" xmlns="http://www.w3.org/2000/svg">
<path fill-rule="evenodd" clip-rule="evenodd" d="M28.2081 10.2346C28.3784 9.71113 28.4705 9.15234 28.4705 8.57205C28.4705 5.60745 26.0672 3.20416 23.1026 3.20416C21.0543 3.20416 19.274 4.35138 18.3691 6.03833C18.394 6.10023 18.4178 6.16271 18.4405 6.22573C19.0303 6.00287 19.6696 5.88091 20.3375 5.88091C22.8761 5.88091 25.0032 7.64322 25.562 10.0112C25.7205 10.0038 25.88 10 26.0404 10C26.7847 10 27.51 10.081 28.2081 10.2346Z" fill="#111111"/>
<rect x="32.0048" y="6.41553" width="0.534628" height="2.13851" rx="0.267314" transform="rotate(75 32.0048 6.41553)" fill="#111111"/>
<rect x="28.3972" y="1.25226" width="0.534628" height="2.13851" rx="0.267314" transform="rotate(45 28.3972 1.25226)" fill="#111111"/>
<rect x="20.8505" y="0.138367" width="0.534628" height="2.13851" rx="0.267314" transform="rotate(-15 20.8505 0.138367)" fill="#111111"/>
<path fill-rule="evenodd" clip-rule="evenodd" d="M18.1773 19.5139C18.1773 18.1773 16.5735 18.1773 16.5735 19.5139L16.5735 19.5139V21.1178C16.5735 21.5607 16.2144 21.9197 15.7715 21.9197C15.3286 21.9197 14.9696 21.5607 14.9696 21.1178V17.91C14.9696 17.8713 14.9723 17.8332 14.9776 17.796H0.000373794C0.000124729 17.8333 0 17.8708 0 17.9082C0 27.0209 7.3873 34.4082 16.5 34.4082C25.6127 34.4082 33 27.0209 33 17.9082C33 17.8708 32.9999 17.8333 32.9996 17.796H19.7732C19.7785 17.8332 19.7812 17.8713 19.7812 17.91V24.3256C19.7812 24.7685 19.4222 25.1275 18.9793 25.1275C18.5364 25.1275 18.1773 24.7685 18.1773 24.3256V19.5139ZM18.1773 17.91C18.1773 17.8713 18.1801 17.8332 18.1854 17.796H18.1773V17.91Z" fill="#111111"/>
<path fill-rule="evenodd" clip-rule="evenodd" d="M0.00851418 16.3434H33C32.9375 15.1703 32.534 14.0877 31.8869 13.193V13.1387H31.8471C30.767 11.6805 29.0338 10.7352 27.0798 10.7352C26.4273 10.7352 25.7994 10.8406 25.2122 11.0353C24.7194 8.57932 22.5504 6.7293 19.9493 6.7293C19.3373 6.7293 18.7492 6.83172 18.2013 7.02035C17.2056 4.77238 14.955 3.2041 12.3381 3.2041C8.79831 3.2041 5.92871 6.0737 5.92871 9.61352C5.92871 9.77523 5.9347 9.93554 5.94647 10.0942L5.92871 10.0942C2.65438 10.0942 0 12.7486 0 16.0229C0 16.1305 0.00286207 16.2373 0.00851418 16.3434ZM12.4393 4.6903C10.2414 4.6903 8.27318 5.98209 6.95016 8.01942C8.10396 5.43892 10.0577 3.74237 12.2735 3.74237C14.0928 3.74237 15.7354 4.886 16.9037 6.72353C15.6756 5.45019 14.125 4.6903 12.4393 4.6903Z" fill="#111111"/>
<rect x="14.4349" y="29.9391" width="4.27702" height="7.48479" fill="#111111"/>
<rect x="9.62329" y="36.3547" width="13.9003" height="4.27702" rx="2.13851" fill="#111111"/>
</svg>
